<?xml version="1.0" encoding="UTF-8"?>
<svg id="Warstwa_1" xmlns="http://www.w3.org/2000/svg" version="1.1" viewBox="0 0 293.6 293.8">
  <!-- Generator: Adobe Illustrator 29.0.0, SVG Export Plug-In . SVG Version: 2.1.0 Build 186)  -->
  <defs>
    <style>
      .st0 {
        fill: #fff;
      }

      .st1 {
        fill: none;
        stroke: #ec685c;
        stroke-miterlimit: 10;
        stroke-width: 5px;
      }

      .st2 {
        fill: #ec685c;
      }

      .st3 {
        fill: #f08576;
      }

      .st4 {
        fill: #c8483b;
      }
    </style>
  </defs>
  <g>
    <g>
      <path class="st3" d="M228.3,153.7c-3.2,16.3-14.9,34.1-33.8,51.5-7.1,6.5-16.4,13.3-27.8,20.1-6.1,3.7-13,5.5-19.9,5.5s-13.8-1.8-19.9-5.5c-6.6-4-12.6-8-17.9-11.9-3.3-2.5-3.9-7.1-1.5-10.4,2.5-3.3,7.1-3.9,10.4-1.5,4.8,3.6,10.4,7.4,16.6,11.1,7.6,4.6,17,4.6,24.5,0,10.3-6.2,19.1-12.6,25.4-18.3,16.3-15,26.7-30.4,29.2-43.4,4.4-22.4-5.4-39.1-25.5-43.6-18.3-4.1-35.9,14.1-36,14.3,0,0-.1,0-.2.1,0,0-.1.1-.2.2,0,0-.8.8-2.1,2.1-2.5,2.6-7.1,7.4-12,13.8,0,0,0,0,0,0-4.8,6.2-9.9,13.9-13.8,22.1-1.3,2.7-3.9,4.3-6.7,4.3s-2.1-.2-3.1-.7c-3.7-1.7-5.3-6.1-3.6-9.9,10.5-22.6,29-40.4,31-42.4.4-.4,1.5-1.5,3.2-3,7.3-6.5,25.8-20.2,46.7-15.5,4.9,1.1,9.5,2.8,13.6,5,7.1,3.8,13,9.2,17.2,15.9,6.9,11,9,24.8,6,40.1Z"/>
      <path class="st3" d="M191.1,143.4c-14.3,38.4-44.2,52-68.3,52s-1.6,0-2.4,0c-6.2-.2-12-1.3-17.5-3.1-12.9-4.1-23.6-12.3-30.6-23.2h0c-2.9-4.4-5.1-9.3-6.6-14.6,0-.2-.1-.4-.2-.7,0,0,0,0,0,0,0,0,0,0,0,0-2.9-15.2-.9-29,6-39.9,6.7-10.6,17.3-17.8,30.8-20.9,8.4-1.9,17.2-1,26.3,2.6,3.8,1.5,5.7,5.8,4.1,9.7-1.5,3.8-5.8,5.7-9.6,4.1-6.2-2.5-12.1-3.1-17.5-1.9-20,4.5-29.7,21-25.5,43.3,5.2,17.4,21.3,29.2,41,29.9,2.1,0,4.2,0,6.1-.1,14.6-1.1,26.4-8.1,35.1-17.5,6.8-7.3,11.8-16,15-24.6,1.4-3.9,5.7-5.8,9.6-4.4,3.8,1.4,5.8,5.7,4.4,9.5Z"/>
    </g>
    <circle class="st0" cx="146.8" cy="203.4" r="8.4" transform="translate(-100.8 163.4) rotate(-45)"/>
    <path class="st2" d="M228.3,153.7c-3.2,16.3-14.9,34.1-33.8,51.5-7.1,6.5-16.4,13.3-27.8,20.1-6.1,3.7-13,5.5-19.9,5.5s-13.8-1.8-19.9-5.5c-3.5-2.1-6.8-4.2-9.9-6.3-2.8-1.9-5.5-3.8-7.9-5.6-3.3-2.5-3.9-7.1-1.5-10.4,2.5-3.3,7.1-3.9,10.4-1.5,4.8,3.6,10.4,7.4,16.6,11.1,4.9,2.9,10.5,4,16,3.1h0c3-.5,5.9-1.5,8.6-3.1,0,0,0,0,0,0,10.3-6.2,19.1-12.6,25.4-18.3,16.3-15,26.7-30.4,29.2-43.4,4.4-22.4-5.4-39.1-25.5-43.6-18.3-4.1-35.9,14.1-36,14.3,0,0-.1,0-.2.1,0,0-.1.1-.2.2-.1,0-6.7,6.3-14.1,15.8.7-1.3,24.4-46.8,67.2-40,0,0,0,0,0,0,7.1,3.8,13,9.2,17.2,15.9,6.9,11,9,24.8,6,40.1Z"/>
    <path class="st2" d="M162.5,163.9s-38.8,46-90.3,5.1h0c-2.9-4.4-5.1-9.3-6.6-14.6,0-.2-.1-.4-.2-.7,0,0,0,0,0,0,0,0,0,0,0,0-2.9-15.2-.9-29,6-39.9,6.7-10.6,17.3-17.8,30.8-20.9,8.4-1.9,17.2-1,26.3,2.6,3.8,1.5,5.7,5.8,4.1,9.7-1.5,3.8-5.8,5.7-9.6,4.1-6.2-2.5-12.1-3.1-17.5-1.9-20,4.5-29.7,21-25.5,43.3,5.2,17.4,21.3,29.2,41,29.9,2.1,0,4.2,0,6.1-.1,14.6-1.1,26.4-8.1,35.1-17.5l.4,1.1Z"/>
    <path class="st4" d="M150.5,215.7c-1.1.3-25.5,6.5-41.5-2.3-3.3-2.5-3.9-7.1-1.5-10.4,2.5-3.3,7.1-3.9,10.4-1.5,4.8,3.6,10.4,7.4,16.6,11.1,4.9,2.9,10.5,4,16,3.1Z"/>
    <circle class="st0" cx="100.5" cy="78.1" r="8.4"/>
    <circle class="st0" cx="195.3" cy="78.1" r="8.4"/>
  </g>
  <circle class="st1" cx="146.8" cy="146.8" r="143"/>
</svg>