<?xml version="1.0" encoding="UTF-8"?>
<svg id="Warstwa_1" xmlns="http://www.w3.org/2000/svg" version="1.1" viewBox="0 0 293.6 293.8">
  <!-- Generator: Adobe Illustrator 29.0.0, SVG Export Plug-In . SVG Version: 2.1.0 Build 186)  -->
  <defs>
    <style>
      .st0 {
        stroke: #fff;
        stroke-width: 7.1px;
      }

      .st0, .st1, .st2, .st3 {
        fill: none;
      }

      .st0, .st2, .st3 {
        stroke-linecap: round;
        stroke-linejoin: round;
      }

      .st1 {
        stroke-miterlimit: 10;
        stroke-width: 5px;
      }

      .st1, .st3 {
        stroke: #ec685c;
      }

      .st2 {
        stroke: #f08576;
      }

      .st2, .st3 {
        stroke-width: 12px;
      }

      .st4 {
        fill: #ec685c;
      }

      .st5 {
        fill: #c8483b;
      }
    </style>
  </defs>
  <circle class="st1" cx="146.8" cy="146.8" r="143"/>
  <path class="st2" d="M162.9,149.1c4.2-2.8,9.4-4.7,15.8-4.7,19,0,32.1,16.1,32.1,34.9s-17.9,47.5-64.2,69.9c-46.4-22.4-64.2-48.1-64.2-69.9s13.1-34.9,32.1-34.9,32.1,29.9,32.1,29.9"/>
  <path class="st4" d="M178.7,138.4c-7,0-13.4,1.9-19.1,5.7-2.8,1.8-3.5,5.6-1.7,8.3,1.8,2.8,5.6,3.5,8.3,1.7,3.7-2.5,7.8-3.7,12.4-3.7,14.9,0,26.1,12.4,26.1,28.9s-21.2,44.8-58.2,63.2c-3.2-1.6-6.2-3.2-9.2-4.8,0,0-.1.2-.2.3-.1.7-.5,1.5-1.1,2.1-2.7,2.7-5.9,4.3-9.3,5.4,5.2,3.1,10.9,6.1,17.2,9.2.8.4,1.7.6,2.6.6s1.8-.2,2.6-.6c58.8-28.4,67.6-59.4,67.6-75.3,0-23-16.7-40.9-38.1-40.9Z"/>
  <path class="st5" d="M166.2,154c2.2-1.5,4.6-2.5,7.1-3.1-2.3-3.6-4.8-7.1-7.9-10-2.1.8-4,1.9-5.9,3.1-2.8,1.8-3.5,5.6-1.7,8.3,1.8,2.8,5.6,3.5,8.3,1.7Z"/>
  <path class="st5" d="M146.5,242.5c-3-1.5-5.9-3-8.6-4.5-2.1.3-4.2.6-6.4.8-4.6.5-9.2.8-13.8,1,3.9,2.6,8.2,5.3,12.9,7.9.3.2,1.4-.3,3.1-.7,1.6-.4,12.9-4.6,12.7-4.5Z"/>
  <path class="st3" d="M107.8,78.8v-10.5c0-4.4,2.4-8.5,6.3-10.7,20.2-11.1,44.6-11.1,64.8,0,3.9,2.1,6.3,6.2,6.3,10.7,0,9.2,0,1.2,0,10.5"/>
  <path class="st5" d="M101.8,71.4v7.4c0,3.3,2.7,6,6,6s6-2.7,6-6v-10.5s0,0,0,0c-4.1.7-8.1,1.7-12,3.1Z"/>
  <path class="st5" d="M183.9,71.2c-1.6-.4-3.1-.8-4.7-1.2v8.9c0,3.3,2.7,6,6,6s6-2.7,6-6v-5.9c-2.4-.5-4.9-1.1-7.3-1.7Z"/>
  <path class="st2" d="M195,89.8c2.1,1.6,2.8,4.5,1.7,6.9-3.3,7.4-6.6,14.8-10,22.3-1,2.3-3.5,3.5-6,2.9-22.3-5.7-46.2-5.7-68.4,0-2.4.6-4.9-.6-6-2.9-3.3-7.4-6.6-14.8-10-22.3-1.1-2.4-.4-5.3,1.7-6.9,13.6-10.3,30.3-16.4,48.4-16.4s34.8,6.1,48.4,16.4Z"/>
  <g>
    <line class="st0" x1="146.5" y1="86.1" x2="146.5" y2="104.7"/>
    <line class="st0" x1="155.9" y1="95.4" x2="137.2" y2="95.4"/>
  </g>
</svg>