<?xml version="1.0" encoding="UTF-8"?>
<svg xmlns="http://www.w3.org/2000/svg" version="1.1" xmlns:xlink="http://www.w3.org/1999/xlink" viewBox="0 0 371.7 115.9">
  <!-- Generator: Adobe Illustrator 29.0.0, SVG Export Plug-In . SVG Version: 2.1.0 Build 186)  -->
  <defs>
    <style>
      .st0 {
        fill: #fff1cd;
      }

      .st1 {
        fill: #fff;
      }

      .st2 {
        fill: url(#Gradient_bez_nazwy_16);
      }

      .st2, .st3 {
        mix-blend-mode: multiply;
        opacity: .5;
      }

      .st4 {
        isolation: isolate;
      }

      .st3 {
        fill: url(#Gradient_bez_nazwy_15);
      }

      .st5 {
        fill: #dcd0b2;
      }

      .st6 {
        fill: #f08576;
      }

      .st7 {
        fill: #fff7cf;
      }
    </style>
    <linearGradient id="Gradient_bez_nazwy_15" data-name="Gradient bez nazwy 15" x1="72" y1="70.1" x2="36.1" y2="34.2" gradientUnits="userSpaceOnUse">
      <stop offset="0" stop-color="#010101"/>
      <stop offset="1" stop-color="#1e1e1c" stop-opacity="0"/>
    </linearGradient>
    <linearGradient id="Gradient_bez_nazwy_16" data-name="Gradient bez nazwy 16" x1="113.8" y1="132.7" x2="76.2" y2="57.2" gradientUnits="userSpaceOnUse">
      <stop offset="0" stop-color="#010101"/>
      <stop offset="1" stop-color="#1e1e1c" stop-opacity="0"/>
    </linearGradient>
  </defs>
  <g class="st4">
    <g id="Warstwa_1">
      <g>
        <g>
          <path class="st1" d="M157.8,79.3h-10.1v-1.9l6.5-9.3h-6.3v-2.4h9.7v1.9l-6.5,9.3h6.6v2.4Z"/>
          <path class="st1" d="M170.1,79.3l-1-3.2h-4.9l-1,3.2h-3.1l4.8-13.6h3.5l4.8,13.6h-3.1ZM168.4,73.7c-.9-2.9-1.4-4.6-1.5-4.9-.1-.4-.2-.7-.2-.9-.2.8-.8,2.7-1.7,5.9h3.5Z"/>
          <path class="st1" d="M187.6,79.3h-3.3l-3.5-5.7-1.2.9v4.8h-2.9v-13.5h2.9v6.2l1.1-1.6,3.7-4.6h3.2l-4.7,6,4.8,7.5Z"/>
          <path class="st1" d="M191.2,79.3v-4.5l-.6.4-1-1.8,1.7-1v-6.5h2.9v4.8l1.3-.8,1.1,1.8-2.4,1.5v3.9h5.5v2.4h-8.4Z"/>
          <path class="st1" d="M212.1,79.3l-1-3.2h-4.9l-1,3.2h-3.1l4.8-13.6h3.5l4.8,13.6h-3.1ZM210.4,73.7c-.9-2.9-1.4-4.6-1.5-4.9-.1-.4-.2-.7-.2-.9-.2.8-.8,2.7-1.7,5.9h3.5Z"/>
          <path class="st1" d="M230,72.4c0,2.2-.6,3.9-1.9,5.1s-3.1,1.8-5.5,1.8h-3.8v-13.5h4.2c2.2,0,3.9.6,5.1,1.7,1.2,1.2,1.8,2.8,1.8,4.9ZM227,72.5c0-2.9-1.3-4.4-3.8-4.4h-1.5v8.8h1.2c2.8,0,4.1-1.5,4.1-4.4Z"/>
          <path class="st1" d="M253.8,72.5c0,2.2-.6,4-1.7,5.2s-2.7,1.8-4.8,1.8-3.7-.6-4.8-1.8-1.7-2.9-1.7-5.2.6-4,1.7-5.2c1.1-1.2,2.7-1.8,4.8-1.8s3.7.6,4.8,1.8c1.1,1.2,1.7,2.9,1.7,5.2ZM243.9,72.5c0,1.5.3,2.6.9,3.4.6.8,1.4,1.1,2.6,1.1,2.3,0,3.4-1.5,3.4-4.6s-1.1-4.6-3.4-4.6-2,.4-2.6,1.2-.9,1.9-.9,3.4Z"/>
          <path class="st1" d="M267.8,70c0,1.5-.5,2.6-1.4,3.3s-2.2,1.2-3.9,1.2h-1.2v4.8h-2.9v-13.5h4.3c1.6,0,2.9.4,3.7,1.1s1.3,1.8,1.3,3.2ZM261.3,72.2h.9c.9,0,1.5-.2,2-.5.4-.3.7-.9.7-1.5s-.2-1.2-.5-1.5c-.4-.3-.9-.5-1.7-.5h-1.3v4Z"/>
          <path class="st1" d="M272.3,79.3v-13.5h2.9v13.5h-2.9Z"/>
          <path class="st1" d="M288.2,79.3h-7.8v-13.5h7.8v2.3h-4.9v3h4.6v2.3h-4.6v3.5h4.9v2.4Z"/>
          <path class="st1" d="M303.8,79.3h-3.3l-3.5-5.7-1.2.9v4.8h-2.9v-13.5h2.9v6.2l1.1-1.6,3.7-4.6h3.2l-4.7,6,4.8,7.5Z"/>
          <path class="st1" d="M307.4,79.3v-13.5h2.9v13.5h-2.9Z"/>
          <path class="st1" d="M156.8,89.6c0,1.5-.5,2.6-1.4,3.3-.9.8-2.2,1.2-3.9,1.2h-1.2v4.8h-2.9v-13.5h4.3c1.6,0,2.9.4,3.7,1.1.9.7,1.3,1.8,1.3,3.2ZM150.3,91.7h.9c.9,0,1.5-.2,2-.5.4-.3.7-.9.7-1.5s-.2-1.2-.5-1.5c-.4-.3-.9-.5-1.7-.5h-1.3v4Z"/>
          <path class="st1" d="M169.5,98.9l-1-3.2h-4.9l-1,3.2h-3.1l4.8-13.6h3.5l4.8,13.6h-3.1ZM167.8,93.3c-.9-2.9-1.4-4.6-1.5-4.9s-.2-.7-.2-.9c-.2.8-.8,2.7-1.7,5.9h3.5Z"/>
          <path class="st1" d="M176.2,98.9v-13.5h2.9v11.2h5.5v2.4h-8.4Z"/>
          <path class="st1" d="M188.8,98.9v-13.5h2.9v13.5h-2.9Z"/>
          <path class="st1" d="M205.2,98.9l-1-3.2h-4.9l-1,3.2h-3.1l4.8-13.6h3.5l4.8,13.6h-3.1ZM203.5,93.3c-.9-2.9-1.4-4.6-1.5-4.9s-.2-.7-.2-.9c-.2.8-.8,2.7-1.7,5.9h3.5Z"/>
          <path class="st1" d="M217.1,98.9h-2.9v-11.1h-3.7v-2.4h10.2v2.4h-3.7v11.1Z"/>
          <path class="st1" d="M229,90.9l2.8-5.6h3.1l-4.5,8.3v5.3h-2.8v-5.2l-4.5-8.4h3.1l2.8,5.6Z"/>
          <path class="st1" d="M251.6,98.9h-3.3l-1.8-7.1c0-.3-.2-.8-.3-1.6-.2-.8-.3-1.3-.3-1.6,0,.3-.1.9-.3,1.6-.1.7-.3,1.3-.3,1.6l-1.8,7.1h-3.3l-3.4-13.5h2.8l1.7,7.4c.3,1.4.5,2.5.7,3.5,0-.4.1-.9.3-1.6s.3-1.3.4-1.7l2-7.6h2.7l2,7.6c0,.3.2.9.3,1.6.1.7.2,1.3.3,1.8,0-.5.2-1.1.3-1.8.1-.7.3-1.3.4-1.7l1.7-7.4h2.8l-3.4,13.5Z"/>
          <path class="st1" d="M270.7,98.9h-3.6l-5.9-10.2h0c.1,1.8.2,3.1.2,3.9v6.4h-2.6v-13.5h3.6l5.9,10.1h0c0-1.8-.1-3-.1-3.7v-6.4h2.6v13.5Z"/>
          <path class="st1" d="M283.7,98.9h-7.8v-13.5h7.8v2.3h-4.9v3h4.6v2.3h-4.6v3.5h4.9v2.4Z"/>
          <path class="st1" d="M287,102.9c-.6,0-1.2,0-1.7-.2v-2.4c.5.1.9.2,1.3.2.6,0,1.1-.2,1.4-.6.3-.4.4-1,.4-1.8v-12.7h2.9v12.7c0,1.6-.4,2.8-1.1,3.6-.7.8-1.8,1.2-3.2,1.2Z"/>
        </g>
        <g>
          <path class="st1" d="M168,44.5c0,1.8-.5,3.4-1.4,4.8s-2.2,2.5-4,3.3c-1.7.8-3.8,1.2-6.1,1.2s-3.6-.1-4.9-.4c-1.3-.3-2.7-.7-4.1-1.4v-7c1.5.8,3.1,1.4,4.7,1.8,1.6.4,3.1.6,4.5.6s2-.2,2.6-.6c.5-.4.8-.9.8-1.6s-.1-.7-.3-1c-.2-.3-.6-.6-1.1-.9-.5-.3-1.8-.9-3.9-1.9-1.9-.9-3.3-1.7-4.3-2.5-1-.8-1.7-1.7-2.1-2.8s-.7-2.3-.7-3.7c0-2.7,1-4.8,2.9-6.3,2-1.5,4.6-2.3,8-2.3s6.1.7,9.2,2.1l-2.4,6.1c-2.7-1.2-5.1-1.9-7-1.9s-1.8.2-2.2.5c-.5.4-.7.8-.7,1.3s.3,1.1.9,1.5c.6.5,2.2,1.3,4.8,2.5,2.5,1.1,4.3,2.3,5.2,3.6,1,1.3,1.5,2.9,1.5,4.9ZM154.1,21.9v-.6c2-2.2,3.3-3.6,3.9-4.2.6-.6,1-1.2,1.4-1.7h8.5v.4c-1.1.9-2.5,1.9-4.4,3.2-1.9,1.3-3.3,2.3-4.2,2.9h-5.2Z"/>
          <path class="st1" d="M208,53.4h-9.3l-2.8-12.7c-.1-.5-.3-1.6-.6-3.2-.3-1.6-.5-2.9-.6-4-.1.9-.3,1.9-.5,3.2-.2,1.3-.5,2.5-.7,3.5-.2,1.1-1.2,5.4-2.9,13.1h-9.3l-7.2-29.1h7.6l3.2,14.6c.7,3.2,1.2,5.8,1.5,7.7.2-1.4.5-3.2.9-5.5.4-2.3.9-4.2,1.2-5.8l2.6-11h7.3l2.5,11c.4,1.8.9,3.8,1.3,6.1.4,2.3.7,4,.9,5.2.2-1.5.6-4,1.4-7.7l3.2-14.6h7.6l-7.2,29.1Z"/>
          <path class="st1" d="M223,53.4v-29.1h7.9v29.1h-7.9Z"/>
          <path class="st1" d="M259.1,53.4l-1.4-5.5h-9.5l-1.5,5.5h-8.6l9.5-29.2h10.5l9.6,29.2h-8.6ZM256.1,41.5l-1.3-4.8c-.3-1.1-.6-2.4-1.1-4.1-.4-1.7-.7-2.9-.8-3.6-.1.7-.4,1.8-.7,3.3-.4,1.6-1.1,4.6-2.3,9.2h6.2Z"/>
          <path class="st1" d="M287.8,53.4h-7.9v-22.7h-7.1v-6.4h22.1v6.4h-7.1v22.7Z"/>
          <path class="st1" d="M304.2,53.4v-9.6l-2,1.1-2.8-4.9,4.9-2.9v-12.8h7.9v8l4.2-2.6,2.9,4.9-7.2,4.4v8.1h11.2v6.4h-19.1Z"/>
          <path class="st1" d="M359.3,38.8c0,4.9-1.2,8.6-3.6,11.2-2.4,2.5-5.9,3.8-10.6,3.8s-8.1-1.3-10.5-3.8-3.7-6.3-3.7-11.2,1.2-8.5,3.6-11.1c2.4-2.6,5.9-3.8,10.6-3.8s8.1,1.3,10.5,3.8c2.4,2.5,3.6,6.3,3.6,11.2ZM339.3,38.8c0,5.6,2,8.4,5.9,8.4s3.5-.7,4.4-2.1,1.4-3.5,1.4-6.4-.5-5.1-1.5-6.4c-1-1.4-2.4-2.1-4.4-2.1-3.9,0-5.9,2.8-5.9,8.5Z"/>
        </g>
      </g>
      <g>
        <circle class="st7" cx="71.6" cy="100.6" r="7.3"/>
        <circle class="st7" cx="81.9" cy="90.3" r="7.3"/>
        <circle class="st7" cx="92.2" cy="80" r="7.3"/>
        <circle class="st7" cx="102.5" cy="69.7" r="7.3"/>
      </g>
      <rect class="st7" x="37" y="34.4" width="58.2" height="59.4" transform="translate(-26 65.5) rotate(-45)"/>
      <path class="st6" d="M59.8,16.8h0s0,0,0,0c-11.4-11.4-29.8-11.4-41.1,0-11.4,11.4-11.4,29.8,0,41.1,0,0,0,0,0,0h0s47.8,47.8,47.8,47.8l41.1-41.1L59.8,16.8Z"/>
      <path class="st3" d="M59.8,16.8h0s0,0,0,0c-11.4-11.4-29.8-11.4-41.1,0-11.4,11.4-11.4,29.8,0,41.1,0,0,0,0,0,0h0s47.8,47.8,47.8,47.8l41.1-41.1L59.8,16.8Z"/>
      <g>
        <circle class="st1" cx="30.5" cy="69.7" r="7.3"/>
        <circle class="st1" cx="40.8" cy="80" r="7.3"/>
        <circle class="st1" cx="51.1" cy="90.3" r="7.3"/>
        <circle class="st1" cx="61.4" cy="100.6" r="7.3"/>
      </g>
      <rect class="st1" x="37.9" y="34.4" width="58.2" height="59.4" transform="translate(65 -28.6) rotate(45)"/>
      <path class="st0" d="M114.4,16.7c-11.4-11.4-29.8-11.4-41.1,0,0,0,0,0,0,0h0s-47.8,47.8-47.8,47.8c-2.8,2.8-2.8,7.4,0,10.3,2.8,2.8,7.4,2.8,10.3,0-2.8,2.8-2.8,7.4,0,10.3,2.8,2.8,7.4,2.8,10.3,0-2.8,2.8-2.8,7.4,0,10.3,2.8,2.8,7.4,2.8,10.3,0-2.8,2.8-2.8,7.4,0,10.3,2.8,2.8,7.4,2.8,10.3,0l47.8-47.8h0s0,0,0,0c11.4-11.4,11.4-29.8,0-41.1Z"/>
      <path class="st2" d="M114.4,16.7c-11.4-11.4-29.8-11.4-41.1,0,0,0,0,0,0,0h0s-47.8,47.8-47.8,47.8c-2.8,2.8-2.8,7.4,0,10.3,2.8,2.8,7.4,2.8,10.3,0-2.8,2.8-2.8,7.4,0,10.3,2.8,2.8,7.4,2.8,10.3,0-2.8,2.8-2.8,7.4,0,10.3,2.8,2.8,7.4,2.8,10.3,0-2.8,2.8-2.8,7.4,0,10.3,2.8,2.8,7.4,2.8,10.3,0l47.8-47.8h0s0,0,0,0c11.4-11.4,11.4-29.8,0-41.1Z"/>
      <g>
        <circle class="st0" cx="71.6" cy="100.6" r="7.3"/>
        <circle class="st0" cx="81.9" cy="90.3" r="7.3"/>
        <circle class="st0" cx="92.2" cy="80" r="7.3"/>
        <circle class="st0" cx="102.5" cy="69.7" r="7.3"/>
      </g>
      <g>
        <path class="st5" d="M97.9,65.1c2.7-2.7,7.1-2.8,9.9-.3,0,0-.1-.1-.2-.2-2.8-2.8-7.4-2.8-10.3,0-2.8,2.8-2.8,7.4,0,10.3.1.1.2.2.4.3-2.6-2.9-2.6-7.3.2-10.1Z"/>
        <path class="st5" d="M87.6,75.4c2.7-2.7,7.1-2.8,9.9-.3,0,0-.1-.1-.2-.2-2.8-2.8-7.4-2.8-10.3,0-2.8,2.8-2.8,7.4,0,10.3.1.1.2.2.4.3-2.6-2.9-2.6-7.3.2-10.1Z"/>
        <path class="st5" d="M67.1,96c2.7-2.7,7.1-2.8,9.9-.3,0,0-.1-.1-.2-.2-2.8-2.8-7.4-2.8-10.3,0s-2.8,7.4,0,10.3c.1.1.2.2.4.3-2.6-2.9-2.6-7.3.2-10.1Z"/>
        <path class="st5" d="M77.4,85.7c2.7-2.7,7.1-2.8,9.9-.3,0,0-.1-.1-.2-.2-2.8-2.8-7.4-2.8-10.3,0-2.8,2.8-2.8,7.4,0,10.3.1.1.2.2.4.3-2.6-2.9-2.6-7.3.2-10.1Z"/>
      </g>
    </g>
  </g>
</svg>